<?xml version="1.0" encoding="UTF-8" standalone="no"?>
<!-- Created with Inkscape (http://www.inkscape.org/) -->

<svg
   xmlns:dc="http://purl.org/dc/elements/1.1/"
   xmlns:cc="http://creativecommons.org/ns#"
   xmlns:rdf="http://www.w3.org/1999/02/22-rdf-syntax-ns#"
   xmlns:svg="http://www.w3.org/2000/svg"
   xmlns="http://www.w3.org/2000/svg"
   xmlns:sodipodi="http://sodipodi.sourceforge.net/DTD/sodipodi-0.dtd"
   xmlns:inkscape="http://www.inkscape.org/namespaces/inkscape"
   version="1.1"
   id="svg2"
   xml:space="preserve"
   width="4096"
   height="4096"
   viewBox="0 0 4095.9999 4096"
   sodipodi:docname="basf-logo.svg"
   inkscape:version="0.92.2 (5c3e80d, 2017-08-06)"><metadata
     id="metadata8"><rdf:RDF><cc:Work
         rdf:about=""><dc:format>image/svg+xml</dc:format><dc:type
           rdf:resource="http://purl.org/dc/dcmitype/StillImage" /><dc:title></dc:title></cc:Work></rdf:RDF></metadata><defs
     id="defs6"><clipPath
       clipPathUnits="userSpaceOnUse"
       id="clipPath20"><path
         d="M 0,0 H 841.89 V 595.275 H 0 Z"
         id="path18"
         inkscape:connector-curvature="0" /></clipPath><clipPath
       clipPathUnits="userSpaceOnUse"
       id="clipPath32"><path
         d="M 0,0 H 841.89 V 595.276 H 0 Z"
         id="path30"
         inkscape:connector-curvature="0" /></clipPath><clipPath
       clipPathUnits="userSpaceOnUse"
       id="clipPath40"><path
         d="M 512.102,555.093 H 859.394 V 407.187 H 512.102 Z"
         id="path38"
         inkscape:connector-curvature="0" /></clipPath><clipPath
       clipPathUnits="userSpaceOnUse"
       id="clipPath76"><path
         d="m 529.641,348.91 h 103.374 v 49.992 H 529.641 Z"
         id="path74"
         inkscape:connector-curvature="0" /></clipPath><clipPath
       clipPathUnits="userSpaceOnUse"
       id="clipPath76-3"><path
         d="m 529.641,348.91 h 103.374 v 49.992 H 529.641 Z"
         id="path74-0"
         inkscape:connector-curvature="0" /></clipPath><clipPath
       clipPathUnits="userSpaceOnUse"
       id="clipPath76-3-5"><path
         d="m 529.641,348.91 h 103.374 v 49.992 H 529.641 Z"
         id="path74-0-5"
         inkscape:connector-curvature="0" /></clipPath><clipPath
       clipPathUnits="userSpaceOnUse"
       id="clipPath76-3-5-5"><path
         d="m 529.641,348.91 h 103.374 v 49.992 H 529.641 Z"
         id="path74-0-5-1"
         inkscape:connector-curvature="0" /></clipPath><clipPath
       clipPathUnits="userSpaceOnUse"
       id="clipPath76-3-5-5-0"><path
         d="m 529.641,348.91 h 103.374 v 49.992 H 529.641 Z"
         id="path74-0-5-1-7"
         inkscape:connector-curvature="0" /></clipPath></defs><sodipodi:namedview
     pagecolor="#ffffff"
     bordercolor="#666666"
     borderopacity="1"
     objecttolerance="10"
     gridtolerance="10"
     guidetolerance="10"
     inkscape:pageopacity="0"
     inkscape:pageshadow="2"
     inkscape:window-width="1600"
     inkscape:window-height="837"
     id="namedview4"
     showgrid="false"
     inkscape:zoom="0.037167632"
     inkscape:cx="4828.4156"
     inkscape:cy="4719.1095"
     inkscape:window-x="-8"
     inkscape:window-y="-8"
     inkscape:window-maximized="1"
     inkscape:current-layer="g10" /><g
     id="g10"
     inkscape:groupmode="layer"
     inkscape:label="basf-logo"
     transform="matrix(1.3333333,0,0,-1.3333333,0,4096)"><g
       id="g26" /><path
       d="M 3072.0001,-1.1599999e-5 H -2.1599999e-5 V 3072.0001 H 3072.0001 Z"
       style="fill:#214ca1;fill-opacity:1;fill-rule:nonzero;stroke:none;stroke-width:20.76208878"
       id="path50"
       inkscape:connector-curvature="0" /><path
       d="M 676.07128,1653.0993 H 518.49426 v 157.5771 H 676.07128 Z M 392.43794,1527.0431 h 409.68957 v 409.6895 H 392.43794 Z"
       style="fill:#ffffff;fill-opacity:1;fill-rule:nonzero;stroke:none;stroke-width:26.89486885"
       id="path66"
       inkscape:connector-curvature="0" /><path
       d="M 1085.7608,1653.0993 H 928.18372 v 157.5771 h 157.57708 z"
       style="fill:#ffffff;fill-opacity:1;fill-rule:nonzero;stroke:none;stroke-width:26.89486885"
       id="path68"
       inkscape:connector-curvature="0" /><g
       transform="matrix(26.894871,0,0,26.894871,-14098.868,-8500.3576)"
       id="g70"><g
         id="g72"
         clip-path="url(#clipPath76-3-5)"><g
           id="g78"
           transform="translate(573.9248,382.0732)"><path
             d="m 0,0 h 2.468 c 1.128,0 1.578,0.525 1.578,1.296 0,0.179 -0.055,1.172 -1.254,1.172 H 0 Z M -0.011,-5.795 H 3.06 c 1.094,0 1.586,0.782 1.586,1.474 0,-0.321 0.141,1.261 -1.431,1.261 H -0.011 Z M -4.646,5.998 h 8.487 c 3.116,0 4.538,-2.078 4.538,-3.976 0,-1.368 -0.525,-2.251 -1.936,-3.071 1.779,-0.658 2.747,-1.844 2.747,-3.674 0,-2.189 -1.589,-4.511 -5.337,-4.511 h -8.502 z"
             style="fill:#ffffff;fill-opacity:1;fill-rule:nonzero;stroke:none"
             id="path80"
             inkscape:connector-curvature="0" /></g><g
           id="g82"
           transform="translate(590.1949,383.5555)"><path
             d="m 0,0 -1.295,-5.081 h 2.77 z M -2.254,4.515 H 2.653 L 8.242,-10.699 H 3.206 L 2.469,-8.42 h -4.702 l -0.625,-2.267 h -4.999 z"
             style="fill:#ffffff;fill-opacity:1;fill-rule:nonzero;stroke:none"
             id="path84"
             inkscape:connector-curvature="0" /></g><g
           id="g86"
           transform="translate(606.2642,383.5457)"><path
             d="m 0,0 h 4.68 c 0,2.583 -1.944,4.98 -6.555,4.98 -5.06,0 -6.626,-2.792 -6.626,-4.834 0,-3.295 4.033,-4.171 4.158,-4.21 0.602,-0.19 3.105,-0.861 3.73,-1.084 0.541,-0.194 1.058,-0.627 1.058,-1.206 0,-0.889 -1.058,-1.317 -1.941,-1.317 -0.566,0 -2.469,0.188 -2.469,2.205 H -8.8 c 0,-2.679 1.844,-5.677 7.014,-5.677 5.706,0 6.9,3.404 6.9,5.213 0,1.478 -0.837,3.116 -2.768,3.896 -1.161,0.47 -3.087,0.881 -4.054,1.163 -0.487,0.142 -2.112,0.472 -2.112,1.463 0,1.269 2.093,1.105 1.788,1.105 C -1.086,1.697 0,1.165 0,0"
             style="fill:#ffffff;fill-opacity:1;fill-rule:nonzero;stroke:none"
             id="path88"
             inkscape:connector-curvature="0" /></g><g
           id="g90"
           transform="translate(612.1724,388.0736)"><path
             d="M 0,0 H 11.68 V -4.02 H 4.668 V -6.7 h 6.252 v -3.842 H 4.646 v -4.69 h -4.668 z"
             style="fill:#ffffff;fill-opacity:1;fill-rule:nonzero;stroke:none"
             id="path92"
             inkscape:connector-curvature="0" /></g><g
           id="g94"
           transform="translate(544.8916,360.786)"><path
             d="m 0,0 -0.005,0.019 -1.46,5.488 H -2.381 L -3.865,0 h -0.058 l -0.004,0.02 -1.294,5.487 h -0.846 l 1.684,-6.569 h 0.878 l 1.53,5.563 h 0.057 l 0.005,-0.019 1.506,-5.544 h 0.88 L 2.23,5.507 H 1.401 L 0.058,0 Z"
             style="fill:#ffffff;fill-opacity:1;fill-rule:nonzero;stroke:none"
             id="path96"
             inkscape:connector-curvature="0" /></g><g
           id="g98"
           transform="translate(547.8452,362.5291)"><path
             d="M 0,0 0.002,0.027 C 0.015,0.215 0.056,0.394 0.125,0.559 0.194,0.725 0.289,0.872 0.408,0.997 0.526,1.122 0.671,1.223 0.838,1.295 1.004,1.367 1.193,1.403 1.399,1.403 1.6,1.403 1.786,1.367 1.952,1.295 2.118,1.223 2.265,1.124 2.387,1.002 2.509,0.881 2.607,0.733 2.679,0.563 2.75,0.394 2.793,0.213 2.806,0.027 L 2.808,0 Z M 3.163,1.124 C 2.996,1.392 2.771,1.615 2.494,1.788 2.218,1.961 1.866,2.049 1.446,2.049 1.124,2.049 0.823,1.987 0.553,1.865 0.282,1.744 0.044,1.57 -0.153,1.353 -0.35,1.134 -0.506,0.871 -0.616,0.572 -0.726,0.273 -0.782,-0.061 -0.782,-0.42 c 0.012,-0.361 0.068,-0.7 0.161,-1.003 0.095,-0.305 0.238,-0.569 0.427,-0.788 0.187,-0.219 0.423,-0.392 0.7,-0.513 0.277,-0.122 0.609,-0.184 0.986,-0.184 0.536,0 0.987,0.137 1.339,0.403 0.345,0.263 0.573,0.655 0.679,1.17 H 2.783 C 2.712,-1.646 2.568,-1.881 2.356,-2.035 2.139,-2.192 1.858,-2.271 1.52,-2.271 c -0.263,0 -0.494,0.043 -0.687,0.131 -0.194,0.088 -0.356,0.206 -0.481,0.355 -0.125,0.145 -0.218,0.317 -0.274,0.51 -0.057,0.189 -0.082,0.393 -0.076,0.605 v 0.024 H 3.591 C 3.601,-0.367 3.575,-0.069 3.512,0.242 3.448,0.559 3.331,0.856 3.163,1.124"
             style="fill:#ffffff;fill-opacity:1;fill-rule:nonzero;stroke:none"
             id="path100"
             inkscape:connector-curvature="0" /></g><g
           id="g102"
           transform="translate(556.9717,360.2577)"><path
             d="m 0,0 c -0.25,0 -0.47,0.051 -0.652,0.151 -0.182,0.101 -0.331,0.236 -0.444,0.402 -0.113,0.166 -0.197,0.357 -0.25,0.569 -0.052,0.213 -0.079,0.433 -0.079,0.655 0,0.242 0.025,0.479 0.074,0.706 0.05,0.227 0.134,0.431 0.25,0.607 0.115,0.175 0.272,0.317 0.468,0.425 0.195,0.107 0.439,0.16 0.725,0.16 0.339,0 0.613,-0.086 0.814,-0.256 C 1.103,3.253 1.235,3.018 1.3,2.721 H 2.067 C 2.035,2.988 1.962,3.224 1.85,3.419 1.735,3.624 1.586,3.794 1.408,3.926 1.229,4.06 1.02,4.159 0.786,4.224 0.551,4.288 0.296,4.32 0.028,4.32 -0.344,4.32 -0.674,4.254 -0.953,4.123 -1.233,3.992 -1.469,3.811 -1.654,3.583 -1.839,3.355 -1.979,3.084 -2.071,2.776 -2.163,2.468 -2.209,2.131 -2.209,1.777 c 0,-0.354 0.047,-0.684 0.142,-0.979 0.095,-0.296 0.236,-0.553 0.422,-0.765 0.185,-0.213 0.419,-0.379 0.696,-0.494 0.276,-0.116 0.598,-0.174 0.958,-0.174 0.603,0 1.085,0.16 1.435,0.475 0.343,0.31 0.561,0.758 0.65,1.328 H 1.339 C 1.286,0.803 1.148,0.517 0.931,0.312 0.706,0.105 0.394,0 0,0"
             style="fill:#ffffff;fill-opacity:1;fill-rule:nonzero;stroke:none"
             id="path104"
             inkscape:connector-curvature="0" /></g><g
           id="g106"
           transform="translate(561.4781,364.3221)"><path
             d="m 0,0 c -0.273,-0.182 -0.541,-0.469 -0.729,-0.852 l -0.007,-0.013 h -0.026 v 1.01 h -0.692 v -4.743 h 0.738 v 2.108 c 0,0.309 0.031,0.588 0.093,0.826 0.063,0.241 0.165,0.448 0.302,0.616 0.137,0.169 0.322,0.301 0.548,0.389 0.219,0.085 0.484,0.129 0.791,0.132 V 0.256 C 1,0.257 0.982,0.257 0.964,0.257 0.58,0.257 0.255,0.17 0,0"
             style="fill:#ffffff;fill-opacity:1;fill-rule:nonzero;stroke:none"
             id="path108"
             inkscape:connector-curvature="0" /></g><g
           id="g110"
           transform="translate(563.3599,362.5291)"><path
             d="M 0,0 0.002,0.027 C 0.015,0.215 0.056,0.394 0.125,0.559 0.194,0.725 0.289,0.872 0.408,0.997 0.526,1.122 0.671,1.223 0.838,1.295 1.004,1.367 1.193,1.403 1.399,1.403 1.6,1.403 1.786,1.367 1.952,1.295 2.118,1.223 2.264,1.124 2.386,1.002 2.508,0.881 2.607,0.733 2.679,0.563 2.75,0.394 2.793,0.213 2.806,0.027 L 2.808,0 Z M 3.163,1.124 C 2.995,1.392 2.771,1.615 2.494,1.788 2.218,1.961 1.866,2.049 1.446,2.049 1.124,2.049 0.823,1.987 0.552,1.865 0.282,1.744 0.044,1.57 -0.153,1.353 -0.351,1.134 -0.506,0.871 -0.616,0.572 -0.726,0.273 -0.782,-0.061 -0.782,-0.42 c 0.012,-0.361 0.067,-0.7 0.161,-1.003 0.095,-0.305 0.238,-0.569 0.427,-0.788 0.187,-0.219 0.423,-0.392 0.7,-0.513 0.277,-0.122 0.609,-0.184 0.986,-0.184 0.536,0 0.987,0.137 1.339,0.403 0.345,0.263 0.573,0.655 0.679,1.17 H 2.783 C 2.712,-1.646 2.568,-1.881 2.356,-2.035 2.139,-2.192 1.858,-2.271 1.52,-2.271 c -0.263,0 -0.494,0.043 -0.687,0.131 -0.194,0.088 -0.356,0.206 -0.481,0.355 -0.125,0.145 -0.218,0.317 -0.274,0.51 -0.057,0.189 -0.082,0.393 -0.076,0.605 v 0.024 H 3.591 C 3.601,-0.367 3.575,-0.069 3.512,0.242 3.448,0.559 3.33,0.856 3.163,1.124"
             style="fill:#ffffff;fill-opacity:1;fill-rule:nonzero;stroke:none"
             id="path112"
             inkscape:connector-curvature="0" /></g><g
           id="g114"
           transform="translate(570.9624,361.367)"><path
             d="m 0,0 c 0,-0.113 -0.029,-0.237 -0.085,-0.367 -0.057,-0.128 -0.146,-0.25 -0.266,-0.361 -0.119,-0.109 -0.274,-0.201 -0.462,-0.273 -0.188,-0.071 -0.416,-0.108 -0.677,-0.108 -0.119,0 -0.238,0.011 -0.353,0.038 -0.117,0.024 -0.219,0.066 -0.305,0.124 -0.087,0.057 -0.158,0.134 -0.212,0.225 -0.055,0.094 -0.082,0.209 -0.082,0.342 0,0.202 0.046,0.365 0.139,0.484 0.093,0.118 0.213,0.209 0.358,0.271 0.144,0.063 0.308,0.109 0.488,0.137 0.17,0.027 0.349,0.051 0.534,0.074 0.176,0.021 0.346,0.051 0.503,0.083 0.156,0.034 0.283,0.086 0.379,0.158 L 0,0.857 Z M 0.77,-0.96 C 0.749,-0.873 0.738,-0.737 0.738,-0.547 V 1.919 C 0.738,2.191 0.686,2.415 0.583,2.584 0.481,2.752 0.345,2.884 0.176,2.978 0.007,3.071 -0.186,3.134 -0.395,3.165 -0.867,3.233 -1.357,3.228 -1.79,3.128 -2.027,3.073 -2.239,2.982 -2.421,2.858 -2.602,2.734 -2.75,2.57 -2.859,2.371 -2.964,2.177 -3.025,1.937 -3.039,1.657 h 0.737 c 0.024,0.347 0.149,0.588 0.373,0.716 0.226,0.128 0.511,0.192 0.847,0.192 0.124,0 0.251,-0.008 0.379,-0.027 C -0.574,2.52 -0.456,2.48 -0.351,2.424 -0.246,2.366 -0.158,2.282 -0.092,2.175 -0.024,2.065 0.01,1.92 0.01,1.743 0.01,1.588 -0.037,1.468 -0.129,1.387 -0.218,1.307 -0.34,1.245 -0.492,1.205 -0.64,1.164 -0.814,1.133 -1.009,1.111 -1.201,1.09 -1.408,1.058 -1.624,1.014 -1.826,0.978 -2.026,0.931 -2.22,0.876 -2.411,0.821 -2.583,0.739 -2.731,0.634 -2.878,0.528 -2.999,0.391 -3.09,0.221 c -0.091,-0.168 -0.137,-0.39 -0.137,-0.656 0,-0.236 0.042,-0.44 0.123,-0.606 0.082,-0.165 0.194,-0.303 0.336,-0.407 0.142,-0.106 0.309,-0.183 0.496,-0.229 0.189,-0.045 0.393,-0.067 0.606,-0.067 0.329,0 0.639,0.056 0.922,0.169 0.282,0.112 0.533,0.298 0.745,0.553 l 0.045,0.054 v -0.07 c 0,-0.251 0.058,-0.434 0.173,-0.542 0.116,-0.11 0.273,-0.164 0.469,-0.164 0.229,0 0.411,0.036 0.541,0.109 v 0.563 C 1.147,-1.098 1.077,-1.109 1.013,-1.109 0.876,-1.109 0.795,-1.06 0.77,-0.96"
             style="fill:#ffffff;fill-opacity:1;fill-rule:nonzero;stroke:none"
             id="path116"
             inkscape:connector-curvature="0" /></g><g
           id="g118"
           transform="translate(576.3164,362.5291)"><path
             d="m 0,0 0.002,0.027 c 0.012,0.186 0.053,0.366 0.123,0.532 0.068,0.166 0.163,0.314 0.282,0.438 0.119,0.126 0.264,0.226 0.431,0.298 0.166,0.072 0.354,0.108 0.561,0.108 0.2,0 0.386,-0.036 0.553,-0.108 C 2.118,1.223 2.264,1.125 2.385,1.002 2.508,0.88 2.606,0.732 2.679,0.563 2.75,0.396 2.793,0.215 2.806,0.027 L 2.808,0 Z M 3.146,1.124 C 2.979,1.392 2.754,1.615 2.477,1.788 2.201,1.961 1.848,2.049 1.429,2.049 1.107,2.049 0.806,1.987 0.536,1.865 0.264,1.744 0.027,1.57 -0.17,1.353 -0.368,1.134 -0.523,0.871 -0.633,0.572 -0.742,0.273 -0.798,-0.061 -0.798,-0.42 c 0.011,-0.358 0.066,-0.697 0.16,-1.003 0.095,-0.305 0.239,-0.57 0.427,-0.788 0.188,-0.219 0.424,-0.392 0.7,-0.513 0.277,-0.122 0.609,-0.184 0.987,-0.184 0.535,0 0.985,0.137 1.337,0.403 0.345,0.263 0.574,0.655 0.68,1.17 H 2.766 C 2.695,-1.646 2.551,-1.881 2.338,-2.035 2.123,-2.192 1.841,-2.271 1.503,-2.271 c -0.262,0 -0.494,0.043 -0.687,0.131 -0.194,0.088 -0.356,0.206 -0.482,0.355 -0.125,0.147 -0.217,0.318 -0.273,0.51 -0.057,0.19 -0.082,0.393 -0.076,0.605 l 10e-4,0.024 H 3.574 C 3.584,-0.362 3.557,-0.064 3.495,0.242 3.431,0.559 3.314,0.855 3.146,1.124"
             style="fill:#ffffff;fill-opacity:1;fill-rule:nonzero;stroke:none"
             id="path120"
             inkscape:connector-curvature="0" /></g><g
           id="g122"
           transform="translate(585.437,360.2577)"><path
             d="m 0,0 c -0.251,0 -0.471,0.051 -0.652,0.151 -0.181,0.1 -0.331,0.236 -0.445,0.402 -0.112,0.164 -0.196,0.355 -0.25,0.569 -0.051,0.212 -0.079,0.432 -0.079,0.655 0,0.243 0.026,0.48 0.075,0.706 0.05,0.227 0.134,0.432 0.249,0.606 0.117,0.176 0.275,0.319 0.468,0.426 0.195,0.107 0.439,0.16 0.727,0.16 0.337,0 0.611,-0.086 0.813,-0.256 C 1.104,3.253 1.235,3.018 1.3,2.721 H 2.066 C 2.035,2.988 1.962,3.224 1.851,3.42 1.735,3.623 1.587,3.793 1.407,3.926 1.229,4.06 1.019,4.159 0.785,4.224 0.55,4.288 0.295,4.32 0.027,4.32 -0.345,4.32 -0.675,4.254 -0.954,4.123 -1.234,3.992 -1.469,3.811 -1.654,3.583 -1.839,3.355 -1.979,3.084 -2.071,2.776 -2.162,2.469 -2.209,2.132 -2.209,1.777 c 0,-0.353 0.048,-0.683 0.143,-0.979 0.094,-0.296 0.236,-0.554 0.42,-0.765 0.186,-0.213 0.419,-0.379 0.696,-0.494 0.277,-0.116 0.599,-0.174 0.959,-0.174 0.603,0 1.086,0.16 1.434,0.475 0.343,0.309 0.562,0.757 0.65,1.328 H 1.339 C 1.286,0.803 1.149,0.517 0.93,0.312 0.707,0.105 0.394,0 0,0"
             style="fill:#ffffff;fill-opacity:1;fill-rule:nonzero;stroke:none"
             id="path124"
             inkscape:connector-curvature="0" /></g><g
           id="g126"
           transform="translate(592.0817,364.0946)"><path
             d="M 0,0 C -0.127,0.151 -0.295,0.271 -0.501,0.355 -0.707,0.44 -0.969,0.483 -1.279,0.483 -1.418,0.483 -1.564,0.468 -1.714,0.437 -1.863,0.407 -2.008,0.359 -2.145,0.296 -2.281,0.231 -2.405,0.148 -2.513,0.05 -2.621,-0.049 -2.732,-0.173 -2.793,-0.317 L -2.799,-0.333 H -2.834 V 2.198 H -3.571 V -4.37 h 0.737 v 2.682 c 0,0.216 0.03,0.42 0.089,0.605 0.06,0.185 0.15,0.349 0.269,0.486 0.12,0.139 0.271,0.246 0.45,0.323 0.179,0.075 0.393,0.112 0.636,0.112 0.308,0 0.554,-0.09 0.732,-0.267 0.177,-0.176 0.266,-0.42 0.266,-0.722 V -4.37 h 0.739 v 3.126 c 0,0.256 -0.027,0.492 -0.079,0.704 C 0.217,-0.332 0.127,-0.149 0,0"
             style="fill:#ffffff;fill-opacity:1;fill-rule:nonzero;stroke:none"
             id="path128"
             inkscape:connector-curvature="0" /></g><g
           id="g130"
           transform="translate(594.2115,362.5291)"><path
             d="M 0,0 0.002,0.027 C 0.014,0.213 0.055,0.393 0.124,0.559 0.192,0.725 0.288,0.872 0.407,0.997 0.526,1.123 0.671,1.223 0.838,1.295 1.003,1.367 1.191,1.403 1.399,1.403 1.6,1.403 1.785,1.367 1.951,1.295 2.118,1.223 2.264,1.124 2.386,1.002 2.508,0.88 2.606,0.732 2.679,0.563 2.75,0.394 2.793,0.213 2.806,0.027 L 2.808,0 Z M 3.162,1.124 C 2.995,1.392 2.771,1.615 2.494,1.788 2.218,1.961 1.865,2.049 1.445,2.049 1.123,2.049 0.822,1.987 0.552,1.865 0.281,1.744 0.044,1.57 -0.153,1.353 -0.351,1.134 -0.507,0.871 -0.617,0.572 -0.727,0.273 -0.782,-0.062 -0.782,-0.42 c 0.011,-0.36 0.066,-0.698 0.161,-1.003 0.095,-0.305 0.237,-0.569 0.427,-0.788 0.187,-0.219 0.423,-0.391 0.699,-0.513 0.277,-0.122 0.609,-0.184 0.986,-0.184 0.536,0 0.987,0.137 1.339,0.403 0.345,0.263 0.573,0.654 0.68,1.17 H 2.782 C 2.712,-1.646 2.568,-1.881 2.354,-2.035 2.139,-2.192 1.857,-2.271 1.52,-2.271 c -0.262,0 -0.494,0.043 -0.688,0.131 -0.193,0.088 -0.356,0.206 -0.481,0.355 -0.125,0.146 -0.217,0.318 -0.274,0.51 -0.056,0.189 -0.082,0.393 -0.075,0.605 v 0.024 h 3.589 c 0.01,0.282 -0.018,0.58 -0.08,0.888 C 3.446,0.559 3.329,0.855 3.162,1.124"
             style="fill:#ffffff;fill-opacity:1;fill-rule:nonzero;stroke:none"
             id="path132"
             inkscape:connector-curvature="0" /></g><g
           id="g134"
           transform="translate(604.9898,364.2586)"><path
             d="m 0,0 c -0.135,0.109 -0.301,0.189 -0.491,0.241 -0.193,0.052 -0.41,0.078 -0.648,0.078 -0.309,0 -0.596,-0.071 -0.854,-0.21 -0.259,-0.14 -0.469,-0.339 -0.625,-0.593 l -0.029,-0.046 -0.017,0.051 c -0.097,0.289 -0.264,0.496 -0.498,0.616 -0.236,0.122 -0.504,0.182 -0.795,0.182 -0.661,0 -1.204,-0.27 -1.555,-0.804 L -5.52,-0.497 H -5.549 V 0.208 H -6.24 v -4.742 h 0.738 v 2.96 c 0,0.095 0.023,0.216 0.07,0.354 0.047,0.142 0.123,0.281 0.227,0.411 0.103,0.132 0.24,0.247 0.406,0.341 0.166,0.095 0.368,0.142 0.601,0.142 0.181,0 0.334,-0.027 0.451,-0.081 0.119,-0.054 0.214,-0.131 0.284,-0.231 0.07,-0.099 0.119,-0.216 0.148,-0.347 0.028,-0.13 0.042,-0.276 0.042,-0.432 v -3.117 h 0.738 v 2.96 c 0,0.376 0.114,0.68 0.341,0.907 0.225,0.227 0.541,0.341 0.935,0.341 0.195,0 0.356,-0.028 0.479,-0.085 0.124,-0.057 0.222,-0.136 0.293,-0.236 0.07,-0.099 0.118,-0.215 0.142,-0.348 0.026,-0.133 0.038,-0.275 0.038,-0.422 v -3.117 h 0.738 v 3.488 c 0,0.241 -0.038,0.452 -0.114,0.625 C 0.242,-0.25 0.135,-0.108 0,0"
             style="fill:#ffffff;fill-opacity:1;fill-rule:nonzero;stroke:none"
             id="path136"
             inkscape:connector-curvature="0" /></g><path
           d="m 607.448,364.466 h -0.737 v -4.742 h 0.737 z m 0,0.912 h -0.737 v 0.914 h 0.737 z"
           style="fill:#ffffff;fill-opacity:1;fill-rule:nonzero;stroke:none"
           id="path138"
           inkscape:connector-curvature="0" /><g
           id="g140"
           transform="translate(611.8589,359.9334)"><path
             d="m 0,0 c 0.19,0.115 0.347,0.269 0.465,0.456 0.117,0.186 0.177,0.425 0.177,0.71 0,0.221 -0.044,0.41 -0.131,0.561 -0.088,0.151 -0.205,0.278 -0.346,0.377 -0.144,0.1 -0.31,0.182 -0.493,0.243 -0.187,0.061 -0.381,0.114 -0.578,0.156 -0.185,0.044 -0.37,0.085 -0.556,0.126 -0.186,0.04 -0.356,0.091 -0.505,0.148 -0.149,0.06 -0.275,0.137 -0.374,0.228 -0.1,0.095 -0.151,0.215 -0.151,0.358 0,0.128 0.032,0.235 0.097,0.317 0.065,0.08 0.149,0.144 0.25,0.192 0.101,0.047 0.214,0.081 0.336,0.1 0.258,0.04 0.509,0.04 0.752,-0.015 0.129,-0.028 0.248,-0.074 0.355,-0.137 0.107,-0.063 0.197,-0.148 0.268,-0.254 0.066,-0.099 0.107,-0.225 0.122,-0.373 H 0.426 C 0.406,3.468 0.345,3.7 0.246,3.884 0.143,4.073 0.004,4.227 -0.168,4.337 -0.341,4.45 -0.543,4.53 -0.767,4.575 -0.992,4.621 -1.243,4.645 -1.512,4.645 -1.719,4.645 -1.93,4.618 -2.142,4.566 -2.352,4.515 -2.542,4.435 -2.709,4.328 -2.874,4.223 -3.012,4.083 -3.118,3.914 -3.223,3.746 -3.276,3.542 -3.276,3.307 -3.276,3.005 -3.2,2.768 -3.051,2.601 -2.9,2.431 -2.709,2.297 -2.48,2.203 -2.252,2.108 -1.999,2.034 -1.729,1.982 -1.461,1.931 -1.206,1.871 -0.972,1.807 -0.738,1.741 -0.541,1.654 -0.386,1.548 -0.225,1.437 -0.143,1.275 -0.143,1.063 -0.143,0.909 -0.182,0.781 -0.26,0.682 -0.336,0.582 -0.434,0.507 -0.552,0.456 -0.668,0.405 -0.796,0.371 -0.934,0.353 -1.246,0.31 -1.531,0.315 -1.8,0.371 -1.952,0.401 -2.093,0.454 -2.216,0.527 -2.34,0.601 -2.44,0.7 -2.517,0.822 -2.589,0.94 -2.631,1.085 -2.64,1.252 h -0.737 c 0.014,-0.281 0.076,-0.523 0.181,-0.719 0.109,-0.204 0.256,-0.369 0.437,-0.492 0.182,-0.124 0.395,-0.215 0.631,-0.269 0.456,-0.106 0.972,-0.111 1.478,-0.014 C -0.411,-0.197 -0.191,-0.115 0,0"
             style="fill:#ffffff;fill-opacity:1;fill-rule:nonzero;stroke:none"
             id="path142"
             inkscape:connector-curvature="0" /></g><g
           id="g144"
           transform="translate(614.4987,365.9033)"><path
             d="m 0,0 h -0.738 v -1.437 h -0.787 v -0.644 h 0.787 v -3.076 c 0,-0.218 0.021,-0.398 0.064,-0.53 0.041,-0.13 0.107,-0.233 0.192,-0.303 0.086,-0.072 0.2,-0.12 0.34,-0.148 0.143,-0.027 0.318,-0.041 0.519,-0.041 h 0.578 v 0.645 H 0.618 c -0.123,0 -0.225,0.005 -0.305,0.013 -0.081,0.01 -0.145,0.032 -0.192,0.066 -0.048,0.033 -0.08,0.082 -0.098,0.143 C 0.008,-5.255 0,-5.179 0,-5.083 v 3.002 h 0.983 v 0.644 H 0 Z"
             style="fill:#ffffff;fill-opacity:1;fill-rule:nonzero;stroke:none"
             id="path146"
             inkscape:connector-curvature="0" /></g><g
           id="g148"
           transform="translate(574.0166,365.9033)"><path
             d="m 0,0 h -0.738 v -1.437 h -0.787 v -0.644 h 0.787 v -3.076 c 0,-0.218 0.022,-0.398 0.064,-0.53 0.042,-0.13 0.106,-0.233 0.192,-0.303 0.086,-0.072 0.199,-0.12 0.34,-0.148 C 0,-6.165 0.175,-6.179 0.377,-6.179 h 0.578 v 0.645 H 0.618 c -0.123,0 -0.225,0.005 -0.304,0.013 -0.081,0.01 -0.146,0.032 -0.193,0.066 -0.048,0.033 -0.08,0.082 -0.097,0.143 C 0.007,-5.255 0,-5.179 0,-5.083 v 3.002 h 0.983 v 0.644 H 0 Z"
             style="fill:#ffffff;fill-opacity:1;fill-rule:nonzero;stroke:none"
             id="path150"
             inkscape:connector-curvature="0" /></g><g
           id="g152"
           transform="translate(617.312,363.413)"><path
             d="m 0,0 -0.007,-0.014 h -0.026 v 1.068 h -0.692 v -4.742 h 0.738 v 2.049 c 0,0.309 0.031,0.587 0.093,0.827 0.063,0.24 0.165,0.448 0.302,0.617 0.138,0.17 0.323,0.299 0.548,0.387 0.218,0.085 0.484,0.129 0.79,0.132 V 1.108 C 1.338,1.116 0.996,1.03 0.729,0.852 0.456,0.67 0.188,0.384 0,0"
             style="fill:#ffffff;fill-opacity:1;fill-rule:nonzero;stroke:none"
             id="path154"
             inkscape:connector-curvature="0" /></g><g
           id="g156"
           transform="translate(621.4966,358.4872)"><path
             d="M 0,0 C 0.088,0.159 0.18,0.357 0.271,0.591 L 2.345,5.979 H 1.565 L 0.221,2.058 H 0.166 L 0.16,2.075 -1.234,5.979 H -2.068 L -0.178,1.239 -0.182,1.23 -0.507,0.424 c -0.076,-0.149 -0.166,-0.26 -0.266,-0.335 -0.104,-0.078 -0.24,-0.117 -0.406,-0.117 -0.082,0 -0.164,0.012 -0.245,0.039 -0.065,0.02 -0.129,0.042 -0.193,0.063 v -0.671 c 0.079,-0.027 0.162,-0.046 0.247,-0.057 0.092,-0.013 0.183,-0.019 0.274,-0.019 0.176,0 0.329,0.024 0.455,0.068 0.127,0.045 0.244,0.119 0.349,0.217 0.105,0.1 0.204,0.231 0.292,0.388"
             style="fill:#ffffff;fill-opacity:1;fill-rule:nonzero;stroke:none"
             id="path158"
             inkscape:connector-curvature="0" /></g></g></g><path
       d="M 9778.8029,-54.458119 H 3584.41 V 3045.7428 h 6194.3929 z"
       style="fill:#214ca1;fill-opacity:1;fill-rule:nonzero;stroke:none;stroke-width:29.61717987"
       id="path50-6"
       inkscape:connector-curvature="0"
       inkscape:export-filename="G:\Users\suitedoalex\sites\basf-logo-5.png"
       inkscape:export-xdpi="2.3246834"
       inkscape:export-ydpi="2.3246834" /><path
       d="m 4940.5247,1624.2321 h -323.1818 v 323.1931 h 323.1818 z m -581.7176,-258.5308 h 840.253 v 840.2545 h -840.253 z"
       style="fill:#ffffff;fill-opacity:1;fill-rule:nonzero;stroke:none;stroke-width:55.16006088"
       id="path66-1-6"
       inkscape:connector-curvature="0"
       inkscape:export-filename="G:\Users\suitedoalex\sites\basf-logo-5.png"
       inkscape:export-xdpi="2.3246834"
       inkscape:export-ydpi="2.3246834" /><path
       d="M 5780.7786,1624.2321 H 5457.595 v 323.1931 h 323.1836 z"
       style="fill:#ffffff;fill-opacity:1;fill-rule:nonzero;stroke:none;stroke-width:55.16006088"
       id="path68-7-7"
       inkscape:connector-curvature="0"
       inkscape:export-filename="G:\Users\suitedoalex\sites\basf-logo-5.png"
       inkscape:export-xdpi="2.3246834"
       inkscape:export-ydpi="2.3246834" /><g
       transform="matrix(55.160066,0,0,55.160066,-25362.159,-19200.008)"
       id="g70-7-6"
       inkscape:export-filename="G:\Users\suitedoalex\sites\basf-logo-5.png"
       inkscape:export-xdpi="2.3246834"
       inkscape:export-ydpi="2.3246834"><g
         id="g72-9-5"
         clip-path="url(#clipPath76-3-5-5-0)"><g
           id="g78-4-7"
           transform="translate(573.9248,382.0732)"><path
             d="m 0,0 h 2.468 c 1.128,0 1.578,0.525 1.578,1.296 0,0.179 -0.055,1.172 -1.254,1.172 H 0 Z M -0.011,-5.795 H 3.06 c 1.094,0 1.586,0.782 1.586,1.474 0,-0.321 0.141,1.261 -1.431,1.261 H -0.011 Z M -4.646,5.998 h 8.487 c 3.116,0 4.538,-2.078 4.538,-3.976 0,-1.368 -0.525,-2.251 -1.936,-3.071 1.779,-0.658 2.747,-1.844 2.747,-3.674 0,-2.189 -1.589,-4.511 -5.337,-4.511 h -8.502 z"
             style="fill:#ffffff;fill-opacity:1;fill-rule:nonzero;stroke:none"
             id="path80-6-8"
             inkscape:connector-curvature="0" /></g><g
           id="g82-6-5"
           transform="translate(590.1949,383.5555)"><path
             d="m 0,0 -1.295,-5.081 h 2.77 z M -2.254,4.515 H 2.653 L 8.242,-10.699 H 3.206 L 2.469,-8.42 h -4.702 l -0.625,-2.267 h -4.999 z"
             style="fill:#ffffff;fill-opacity:1;fill-rule:nonzero;stroke:none"
             id="path84-5-5"
             inkscape:connector-curvature="0" /></g><g
           id="g86-9-8"
           transform="translate(606.2642,383.5457)"><path
             d="m 0,0 h 4.68 c 0,2.583 -1.944,4.98 -6.555,4.98 -5.06,0 -6.626,-2.792 -6.626,-4.834 0,-3.295 4.033,-4.171 4.158,-4.21 0.602,-0.19 3.105,-0.861 3.73,-1.084 0.541,-0.194 1.058,-0.627 1.058,-1.206 0,-0.889 -1.058,-1.317 -1.941,-1.317 -0.566,0 -2.469,0.188 -2.469,2.205 H -8.8 c 0,-2.679 1.844,-5.677 7.014,-5.677 5.706,0 6.9,3.404 6.9,5.213 0,1.478 -0.837,3.116 -2.768,3.896 -1.161,0.47 -3.087,0.881 -4.054,1.163 -0.487,0.142 -2.112,0.472 -2.112,1.463 0,1.269 2.093,1.105 1.788,1.105 C -1.086,1.697 0,1.165 0,0"
             style="fill:#ffffff;fill-opacity:1;fill-rule:nonzero;stroke:none"
             id="path88-4-8"
             inkscape:connector-curvature="0" /></g><g
           id="g90-2-2"
           transform="translate(612.1724,388.0736)"><path
             d="M 0,0 H 11.68 V -4.02 H 4.668 V -6.7 h 6.252 v -3.842 H 4.646 v -4.69 h -4.668 z"
             style="fill:#ffffff;fill-opacity:1;fill-rule:nonzero;stroke:none"
             id="path92-0-7"
             inkscape:connector-curvature="0" /></g><g
           id="g94-1-7"
           transform="translate(544.8916,360.786)"><path
             d="m 0,0 -0.005,0.019 -1.46,5.488 H -2.381 L -3.865,0 h -0.058 l -0.004,0.02 -1.294,5.487 h -0.846 l 1.684,-6.569 h 0.878 l 1.53,5.563 h 0.057 l 0.005,-0.019 1.506,-5.544 h 0.88 L 2.23,5.507 H 1.401 L 0.058,0 Z"
             style="fill:#ffffff;fill-opacity:1;fill-rule:nonzero;stroke:none"
             id="path96-7-8"
             inkscape:connector-curvature="0" /></g><g
           id="g98-8-1"
           transform="translate(547.8452,362.5291)"><path
             d="M 0,0 0.002,0.027 C 0.015,0.215 0.056,0.394 0.125,0.559 0.194,0.725 0.289,0.872 0.408,0.997 0.526,1.122 0.671,1.223 0.838,1.295 1.004,1.367 1.193,1.403 1.399,1.403 1.6,1.403 1.786,1.367 1.952,1.295 2.118,1.223 2.265,1.124 2.387,1.002 2.509,0.881 2.607,0.733 2.679,0.563 2.75,0.394 2.793,0.213 2.806,0.027 L 2.808,0 Z M 3.163,1.124 C 2.996,1.392 2.771,1.615 2.494,1.788 2.218,1.961 1.866,2.049 1.446,2.049 1.124,2.049 0.823,1.987 0.553,1.865 0.282,1.744 0.044,1.57 -0.153,1.353 -0.35,1.134 -0.506,0.871 -0.616,0.572 -0.726,0.273 -0.782,-0.061 -0.782,-0.42 c 0.012,-0.361 0.068,-0.7 0.161,-1.003 0.095,-0.305 0.238,-0.569 0.427,-0.788 0.187,-0.219 0.423,-0.392 0.7,-0.513 0.277,-0.122 0.609,-0.184 0.986,-0.184 0.536,0 0.987,0.137 1.339,0.403 0.345,0.263 0.573,0.655 0.679,1.17 H 2.783 C 2.712,-1.646 2.568,-1.881 2.356,-2.035 2.139,-2.192 1.858,-2.271 1.52,-2.271 c -0.263,0 -0.494,0.043 -0.687,0.131 -0.194,0.088 -0.356,0.206 -0.481,0.355 -0.125,0.145 -0.218,0.317 -0.274,0.51 -0.057,0.189 -0.082,0.393 -0.076,0.605 v 0.024 H 3.591 C 3.601,-0.367 3.575,-0.069 3.512,0.242 3.448,0.559 3.331,0.856 3.163,1.124"
             style="fill:#ffffff;fill-opacity:1;fill-rule:nonzero;stroke:none"
             id="path100-7-3"
             inkscape:connector-curvature="0" /></g><g
           id="g102-0-4"
           transform="translate(556.9717,360.2577)"><path
             d="m 0,0 c -0.25,0 -0.47,0.051 -0.652,0.151 -0.182,0.101 -0.331,0.236 -0.444,0.402 -0.113,0.166 -0.197,0.357 -0.25,0.569 -0.052,0.213 -0.079,0.433 -0.079,0.655 0,0.242 0.025,0.479 0.074,0.706 0.05,0.227 0.134,0.431 0.25,0.607 0.115,0.175 0.272,0.317 0.468,0.425 0.195,0.107 0.439,0.16 0.725,0.16 0.339,0 0.613,-0.086 0.814,-0.256 C 1.103,3.253 1.235,3.018 1.3,2.721 H 2.067 C 2.035,2.988 1.962,3.224 1.85,3.419 1.735,3.624 1.586,3.794 1.408,3.926 1.229,4.06 1.02,4.159 0.786,4.224 0.551,4.288 0.296,4.32 0.028,4.32 -0.344,4.32 -0.674,4.254 -0.953,4.123 -1.233,3.992 -1.469,3.811 -1.654,3.583 -1.839,3.355 -1.979,3.084 -2.071,2.776 -2.163,2.468 -2.209,2.131 -2.209,1.777 c 0,-0.354 0.047,-0.684 0.142,-0.979 0.095,-0.296 0.236,-0.553 0.422,-0.765 0.185,-0.213 0.419,-0.379 0.696,-0.494 0.276,-0.116 0.598,-0.174 0.958,-0.174 0.603,0 1.085,0.16 1.435,0.475 0.343,0.31 0.561,0.758 0.65,1.328 H 1.339 C 1.286,0.803 1.148,0.517 0.931,0.312 0.706,0.105 0.394,0 0,0"
             style="fill:#ffffff;fill-opacity:1;fill-rule:nonzero;stroke:none"
             id="path104-9-1"
             inkscape:connector-curvature="0" /></g><g
           id="g106-4-2"
           transform="translate(561.4781,364.3221)"><path
             d="m 0,0 c -0.273,-0.182 -0.541,-0.469 -0.729,-0.852 l -0.007,-0.013 h -0.026 v 1.01 h -0.692 v -4.743 h 0.738 v 2.108 c 0,0.309 0.031,0.588 0.093,0.826 0.063,0.241 0.165,0.448 0.302,0.616 0.137,0.169 0.322,0.301 0.548,0.389 0.219,0.085 0.484,0.129 0.791,0.132 V 0.256 C 1,0.257 0.982,0.257 0.964,0.257 0.58,0.257 0.255,0.17 0,0"
             style="fill:#ffffff;fill-opacity:1;fill-rule:nonzero;stroke:none"
             id="path108-2-5"
             inkscape:connector-curvature="0" /></g><g
           id="g110-4-9"
           transform="translate(563.3599,362.5291)"><path
             d="M 0,0 0.002,0.027 C 0.015,0.215 0.056,0.394 0.125,0.559 0.194,0.725 0.289,0.872 0.408,0.997 0.526,1.122 0.671,1.223 0.838,1.295 1.004,1.367 1.193,1.403 1.399,1.403 1.6,1.403 1.786,1.367 1.952,1.295 2.118,1.223 2.264,1.124 2.386,1.002 2.508,0.881 2.607,0.733 2.679,0.563 2.75,0.394 2.793,0.213 2.806,0.027 L 2.808,0 Z M 3.163,1.124 C 2.995,1.392 2.771,1.615 2.494,1.788 2.218,1.961 1.866,2.049 1.446,2.049 1.124,2.049 0.823,1.987 0.552,1.865 0.282,1.744 0.044,1.57 -0.153,1.353 -0.351,1.134 -0.506,0.871 -0.616,0.572 -0.726,0.273 -0.782,-0.061 -0.782,-0.42 c 0.012,-0.361 0.067,-0.7 0.161,-1.003 0.095,-0.305 0.238,-0.569 0.427,-0.788 0.187,-0.219 0.423,-0.392 0.7,-0.513 0.277,-0.122 0.609,-0.184 0.986,-0.184 0.536,0 0.987,0.137 1.339,0.403 0.345,0.263 0.573,0.655 0.679,1.17 H 2.783 C 2.712,-1.646 2.568,-1.881 2.356,-2.035 2.139,-2.192 1.858,-2.271 1.52,-2.271 c -0.263,0 -0.494,0.043 -0.687,0.131 -0.194,0.088 -0.356,0.206 -0.481,0.355 -0.125,0.145 -0.218,0.317 -0.274,0.51 -0.057,0.189 -0.082,0.393 -0.076,0.605 v 0.024 H 3.591 C 3.601,-0.367 3.575,-0.069 3.512,0.242 3.448,0.559 3.33,0.856 3.163,1.124"
             style="fill:#ffffff;fill-opacity:1;fill-rule:nonzero;stroke:none"
             id="path112-8-2"
             inkscape:connector-curvature="0" /></g><g
           id="g114-2-5"
           transform="translate(570.9624,361.367)"><path
             d="m 0,0 c 0,-0.113 -0.029,-0.237 -0.085,-0.367 -0.057,-0.128 -0.146,-0.25 -0.266,-0.361 -0.119,-0.109 -0.274,-0.201 -0.462,-0.273 -0.188,-0.071 -0.416,-0.108 -0.677,-0.108 -0.119,0 -0.238,0.011 -0.353,0.038 -0.117,0.024 -0.219,0.066 -0.305,0.124 -0.087,0.057 -0.158,0.134 -0.212,0.225 -0.055,0.094 -0.082,0.209 -0.082,0.342 0,0.202 0.046,0.365 0.139,0.484 0.093,0.118 0.213,0.209 0.358,0.271 0.144,0.063 0.308,0.109 0.488,0.137 0.17,0.027 0.349,0.051 0.534,0.074 0.176,0.021 0.346,0.051 0.503,0.083 0.156,0.034 0.283,0.086 0.379,0.158 L 0,0.857 Z M 0.77,-0.96 C 0.749,-0.873 0.738,-0.737 0.738,-0.547 V 1.919 C 0.738,2.191 0.686,2.415 0.583,2.584 0.481,2.752 0.345,2.884 0.176,2.978 0.007,3.071 -0.186,3.134 -0.395,3.165 -0.867,3.233 -1.357,3.228 -1.79,3.128 -2.027,3.073 -2.239,2.982 -2.421,2.858 -2.602,2.734 -2.75,2.57 -2.859,2.371 -2.964,2.177 -3.025,1.937 -3.039,1.657 h 0.737 c 0.024,0.347 0.149,0.588 0.373,0.716 0.226,0.128 0.511,0.192 0.847,0.192 0.124,0 0.251,-0.008 0.379,-0.027 C -0.574,2.52 -0.456,2.48 -0.351,2.424 -0.246,2.366 -0.158,2.282 -0.092,2.175 -0.024,2.065 0.01,1.92 0.01,1.743 0.01,1.588 -0.037,1.468 -0.129,1.387 -0.218,1.307 -0.34,1.245 -0.492,1.205 -0.64,1.164 -0.814,1.133 -1.009,1.111 -1.201,1.09 -1.408,1.058 -1.624,1.014 -1.826,0.978 -2.026,0.931 -2.22,0.876 -2.411,0.821 -2.583,0.739 -2.731,0.634 -2.878,0.528 -2.999,0.391 -3.09,0.221 c -0.091,-0.168 -0.137,-0.39 -0.137,-0.656 0,-0.236 0.042,-0.44 0.123,-0.606 0.082,-0.165 0.194,-0.303 0.336,-0.407 0.142,-0.106 0.309,-0.183 0.496,-0.229 0.189,-0.045 0.393,-0.067 0.606,-0.067 0.329,0 0.639,0.056 0.922,0.169 0.282,0.112 0.533,0.298 0.745,0.553 l 0.045,0.054 v -0.07 c 0,-0.251 0.058,-0.434 0.173,-0.542 0.116,-0.11 0.273,-0.164 0.469,-0.164 0.229,0 0.411,0.036 0.541,0.109 v 0.563 C 1.147,-1.098 1.077,-1.109 1.013,-1.109 0.876,-1.109 0.795,-1.06 0.77,-0.96"
             style="fill:#ffffff;fill-opacity:1;fill-rule:nonzero;stroke:none"
             id="path116-7-9"
             inkscape:connector-curvature="0" /></g><g
           id="g118-3-5"
           transform="translate(576.3164,362.5291)"><path
             d="m 0,0 0.002,0.027 c 0.012,0.186 0.053,0.366 0.123,0.532 0.068,0.166 0.163,0.314 0.282,0.438 0.119,0.126 0.264,0.226 0.431,0.298 0.166,0.072 0.354,0.108 0.561,0.108 0.2,0 0.386,-0.036 0.553,-0.108 C 2.118,1.223 2.264,1.125 2.385,1.002 2.508,0.88 2.606,0.732 2.679,0.563 2.75,0.396 2.793,0.215 2.806,0.027 L 2.808,0 Z M 3.146,1.124 C 2.979,1.392 2.754,1.615 2.477,1.788 2.201,1.961 1.848,2.049 1.429,2.049 1.107,2.049 0.806,1.987 0.536,1.865 0.264,1.744 0.027,1.57 -0.17,1.353 -0.368,1.134 -0.523,0.871 -0.633,0.572 -0.742,0.273 -0.798,-0.061 -0.798,-0.42 c 0.011,-0.358 0.066,-0.697 0.16,-1.003 0.095,-0.305 0.239,-0.57 0.427,-0.788 0.188,-0.219 0.424,-0.392 0.7,-0.513 0.277,-0.122 0.609,-0.184 0.987,-0.184 0.535,0 0.985,0.137 1.337,0.403 0.345,0.263 0.574,0.655 0.68,1.17 H 2.766 C 2.695,-1.646 2.551,-1.881 2.338,-2.035 2.123,-2.192 1.841,-2.271 1.503,-2.271 c -0.262,0 -0.494,0.043 -0.687,0.131 -0.194,0.088 -0.356,0.206 -0.482,0.355 -0.125,0.147 -0.217,0.318 -0.273,0.51 -0.057,0.19 -0.082,0.393 -0.076,0.605 l 10e-4,0.024 H 3.574 C 3.584,-0.362 3.557,-0.064 3.495,0.242 3.431,0.559 3.314,0.855 3.146,1.124"
             style="fill:#ffffff;fill-opacity:1;fill-rule:nonzero;stroke:none"
             id="path120-0-5"
             inkscape:connector-curvature="0" /></g><g
           id="g122-0-3"
           transform="translate(585.437,360.2577)"><path
             d="m 0,0 c -0.251,0 -0.471,0.051 -0.652,0.151 -0.181,0.1 -0.331,0.236 -0.445,0.402 -0.112,0.164 -0.196,0.355 -0.25,0.569 -0.051,0.212 -0.079,0.432 -0.079,0.655 0,0.243 0.026,0.48 0.075,0.706 0.05,0.227 0.134,0.432 0.249,0.606 0.117,0.176 0.275,0.319 0.468,0.426 0.195,0.107 0.439,0.16 0.727,0.16 0.337,0 0.611,-0.086 0.813,-0.256 C 1.104,3.253 1.235,3.018 1.3,2.721 H 2.066 C 2.035,2.988 1.962,3.224 1.851,3.42 1.735,3.623 1.587,3.793 1.407,3.926 1.229,4.06 1.019,4.159 0.785,4.224 0.55,4.288 0.295,4.32 0.027,4.32 -0.345,4.32 -0.675,4.254 -0.954,4.123 -1.234,3.992 -1.469,3.811 -1.654,3.583 -1.839,3.355 -1.979,3.084 -2.071,2.776 -2.162,2.469 -2.209,2.132 -2.209,1.777 c 0,-0.353 0.048,-0.683 0.143,-0.979 0.094,-0.296 0.236,-0.554 0.42,-0.765 0.186,-0.213 0.419,-0.379 0.696,-0.494 0.277,-0.116 0.599,-0.174 0.959,-0.174 0.603,0 1.086,0.16 1.434,0.475 0.343,0.309 0.562,0.757 0.65,1.328 H 1.339 C 1.286,0.803 1.149,0.517 0.93,0.312 0.707,0.105 0.394,0 0,0"
             style="fill:#ffffff;fill-opacity:1;fill-rule:nonzero;stroke:none"
             id="path124-3-5"
             inkscape:connector-curvature="0" /></g><g
           id="g126-2-9"
           transform="translate(592.0817,364.0946)"><path
             d="M 0,0 C -0.127,0.151 -0.295,0.271 -0.501,0.355 -0.707,0.44 -0.969,0.483 -1.279,0.483 -1.418,0.483 -1.564,0.468 -1.714,0.437 -1.863,0.407 -2.008,0.359 -2.145,0.296 -2.281,0.231 -2.405,0.148 -2.513,0.05 -2.621,-0.049 -2.732,-0.173 -2.793,-0.317 L -2.799,-0.333 H -2.834 V 2.198 H -3.571 V -4.37 h 0.737 v 2.682 c 0,0.216 0.03,0.42 0.089,0.605 0.06,0.185 0.15,0.349 0.269,0.486 0.12,0.139 0.271,0.246 0.45,0.323 0.179,0.075 0.393,0.112 0.636,0.112 0.308,0 0.554,-0.09 0.732,-0.267 0.177,-0.176 0.266,-0.42 0.266,-0.722 V -4.37 h 0.739 v 3.126 c 0,0.256 -0.027,0.492 -0.079,0.704 C 0.217,-0.332 0.127,-0.149 0,0"
             style="fill:#ffffff;fill-opacity:1;fill-rule:nonzero;stroke:none"
             id="path128-5-6"
             inkscape:connector-curvature="0" /></g><g
           id="g130-1-2"
           transform="translate(594.2115,362.5291)"><path
             d="M 0,0 0.002,0.027 C 0.014,0.213 0.055,0.393 0.124,0.559 0.192,0.725 0.288,0.872 0.407,0.997 0.526,1.123 0.671,1.223 0.838,1.295 1.003,1.367 1.191,1.403 1.399,1.403 1.6,1.403 1.785,1.367 1.951,1.295 2.118,1.223 2.264,1.124 2.386,1.002 2.508,0.88 2.606,0.732 2.679,0.563 2.75,0.394 2.793,0.213 2.806,0.027 L 2.808,0 Z M 3.162,1.124 C 2.995,1.392 2.771,1.615 2.494,1.788 2.218,1.961 1.865,2.049 1.445,2.049 1.123,2.049 0.822,1.987 0.552,1.865 0.281,1.744 0.044,1.57 -0.153,1.353 -0.351,1.134 -0.507,0.871 -0.617,0.572 -0.727,0.273 -0.782,-0.062 -0.782,-0.42 c 0.011,-0.36 0.066,-0.698 0.161,-1.003 0.095,-0.305 0.237,-0.569 0.427,-0.788 0.187,-0.219 0.423,-0.391 0.699,-0.513 0.277,-0.122 0.609,-0.184 0.986,-0.184 0.536,0 0.987,0.137 1.339,0.403 0.345,0.263 0.573,0.654 0.68,1.17 H 2.782 C 2.712,-1.646 2.568,-1.881 2.354,-2.035 2.139,-2.192 1.857,-2.271 1.52,-2.271 c -0.262,0 -0.494,0.043 -0.688,0.131 -0.193,0.088 -0.356,0.206 -0.481,0.355 -0.125,0.146 -0.217,0.318 -0.274,0.51 -0.056,0.189 -0.082,0.393 -0.075,0.605 v 0.024 h 3.589 c 0.01,0.282 -0.018,0.58 -0.08,0.888 C 3.446,0.559 3.329,0.855 3.162,1.124"
             style="fill:#ffffff;fill-opacity:1;fill-rule:nonzero;stroke:none"
             id="path132-9-1"
             inkscape:connector-curvature="0" /></g><g
           id="g134-0-9"
           transform="translate(604.9898,364.2586)"><path
             d="m 0,0 c -0.135,0.109 -0.301,0.189 -0.491,0.241 -0.193,0.052 -0.41,0.078 -0.648,0.078 -0.309,0 -0.596,-0.071 -0.854,-0.21 -0.259,-0.14 -0.469,-0.339 -0.625,-0.593 l -0.029,-0.046 -0.017,0.051 c -0.097,0.289 -0.264,0.496 -0.498,0.616 -0.236,0.122 -0.504,0.182 -0.795,0.182 -0.661,0 -1.204,-0.27 -1.555,-0.804 L -5.52,-0.497 H -5.549 V 0.208 H -6.24 v -4.742 h 0.738 v 2.96 c 0,0.095 0.023,0.216 0.07,0.354 0.047,0.142 0.123,0.281 0.227,0.411 0.103,0.132 0.24,0.247 0.406,0.341 0.166,0.095 0.368,0.142 0.601,0.142 0.181,0 0.334,-0.027 0.451,-0.081 0.119,-0.054 0.214,-0.131 0.284,-0.231 0.07,-0.099 0.119,-0.216 0.148,-0.347 0.028,-0.13 0.042,-0.276 0.042,-0.432 v -3.117 h 0.738 v 2.96 c 0,0.376 0.114,0.68 0.341,0.907 0.225,0.227 0.541,0.341 0.935,0.341 0.195,0 0.356,-0.028 0.479,-0.085 0.124,-0.057 0.222,-0.136 0.293,-0.236 0.07,-0.099 0.118,-0.215 0.142,-0.348 0.026,-0.133 0.038,-0.275 0.038,-0.422 v -3.117 h 0.738 v 3.488 c 0,0.241 -0.038,0.452 -0.114,0.625 C 0.242,-0.25 0.135,-0.108 0,0"
             style="fill:#ffffff;fill-opacity:1;fill-rule:nonzero;stroke:none"
             id="path136-9-7"
             inkscape:connector-curvature="0" /></g><path
           d="m 607.448,364.466 h -0.737 v -4.742 h 0.737 z m 0,0.912 h -0.737 v 0.914 h 0.737 z"
           style="fill:#ffffff;fill-opacity:1;fill-rule:nonzero;stroke:none"
           id="path138-7-3"
           inkscape:connector-curvature="0" /><g
           id="g140-3-5"
           transform="translate(611.8589,359.9334)"><path
             d="m 0,0 c 0.19,0.115 0.347,0.269 0.465,0.456 0.117,0.186 0.177,0.425 0.177,0.71 0,0.221 -0.044,0.41 -0.131,0.561 -0.088,0.151 -0.205,0.278 -0.346,0.377 -0.144,0.1 -0.31,0.182 -0.493,0.243 -0.187,0.061 -0.381,0.114 -0.578,0.156 -0.185,0.044 -0.37,0.085 -0.556,0.126 -0.186,0.04 -0.356,0.091 -0.505,0.148 -0.149,0.06 -0.275,0.137 -0.374,0.228 -0.1,0.095 -0.151,0.215 -0.151,0.358 0,0.128 0.032,0.235 0.097,0.317 0.065,0.08 0.149,0.144 0.25,0.192 0.101,0.047 0.214,0.081 0.336,0.1 0.258,0.04 0.509,0.04 0.752,-0.015 0.129,-0.028 0.248,-0.074 0.355,-0.137 0.107,-0.063 0.197,-0.148 0.268,-0.254 0.066,-0.099 0.107,-0.225 0.122,-0.373 H 0.426 C 0.406,3.468 0.345,3.7 0.246,3.884 0.143,4.073 0.004,4.227 -0.168,4.337 -0.341,4.45 -0.543,4.53 -0.767,4.575 -0.992,4.621 -1.243,4.645 -1.512,4.645 -1.719,4.645 -1.93,4.618 -2.142,4.566 -2.352,4.515 -2.542,4.435 -2.709,4.328 -2.874,4.223 -3.012,4.083 -3.118,3.914 -3.223,3.746 -3.276,3.542 -3.276,3.307 -3.276,3.005 -3.2,2.768 -3.051,2.601 -2.9,2.431 -2.709,2.297 -2.48,2.203 -2.252,2.108 -1.999,2.034 -1.729,1.982 -1.461,1.931 -1.206,1.871 -0.972,1.807 -0.738,1.741 -0.541,1.654 -0.386,1.548 -0.225,1.437 -0.143,1.275 -0.143,1.063 -0.143,0.909 -0.182,0.781 -0.26,0.682 -0.336,0.582 -0.434,0.507 -0.552,0.456 -0.668,0.405 -0.796,0.371 -0.934,0.353 -1.246,0.31 -1.531,0.315 -1.8,0.371 -1.952,0.401 -2.093,0.454 -2.216,0.527 -2.34,0.601 -2.44,0.7 -2.517,0.822 -2.589,0.94 -2.631,1.085 -2.64,1.252 h -0.737 c 0.014,-0.281 0.076,-0.523 0.181,-0.719 0.109,-0.204 0.256,-0.369 0.437,-0.492 0.182,-0.124 0.395,-0.215 0.631,-0.269 0.456,-0.106 0.972,-0.111 1.478,-0.014 C -0.411,-0.197 -0.191,-0.115 0,0"
             style="fill:#ffffff;fill-opacity:1;fill-rule:nonzero;stroke:none"
             id="path142-4-7"
             inkscape:connector-curvature="0" /></g><g
           id="g144-4-6"
           transform="translate(614.4987,365.9033)"><path
             d="m 0,0 h -0.738 v -1.437 h -0.787 v -0.644 h 0.787 v -3.076 c 0,-0.218 0.021,-0.398 0.064,-0.53 0.041,-0.13 0.107,-0.233 0.192,-0.303 0.086,-0.072 0.2,-0.12 0.34,-0.148 0.143,-0.027 0.318,-0.041 0.519,-0.041 h 0.578 v 0.645 H 0.618 c -0.123,0 -0.225,0.005 -0.305,0.013 -0.081,0.01 -0.145,0.032 -0.192,0.066 -0.048,0.033 -0.08,0.082 -0.098,0.143 C 0.008,-5.255 0,-5.179 0,-5.083 v 3.002 h 0.983 v 0.644 H 0 Z"
             style="fill:#ffffff;fill-opacity:1;fill-rule:nonzero;stroke:none"
             id="path146-2-9"
             inkscape:connector-curvature="0" /></g><g
           id="g148-3-7"
           transform="translate(574.0166,365.9033)"><path
             d="m 0,0 h -0.738 v -1.437 h -0.787 v -0.644 h 0.787 v -3.076 c 0,-0.218 0.022,-0.398 0.064,-0.53 0.042,-0.13 0.106,-0.233 0.192,-0.303 0.086,-0.072 0.199,-0.12 0.34,-0.148 C 0,-6.165 0.175,-6.179 0.377,-6.179 h 0.578 v 0.645 H 0.618 c -0.123,0 -0.225,0.005 -0.304,0.013 -0.081,0.01 -0.146,0.032 -0.193,0.066 -0.048,0.033 -0.08,0.082 -0.097,0.143 C 0.007,-5.255 0,-5.179 0,-5.083 v 3.002 h 0.983 v 0.644 H 0 Z"
             style="fill:#ffffff;fill-opacity:1;fill-rule:nonzero;stroke:none"
             id="path150-6-1"
             inkscape:connector-curvature="0" /></g><g
           id="g152-2-1"
           transform="translate(617.312,363.413)"><path
             d="m 0,0 -0.007,-0.014 h -0.026 v 1.068 h -0.692 v -4.742 h 0.738 v 2.049 c 0,0.309 0.031,0.587 0.093,0.827 0.063,0.24 0.165,0.448 0.302,0.617 0.138,0.17 0.323,0.299 0.548,0.387 0.218,0.085 0.484,0.129 0.79,0.132 V 1.108 C 1.338,1.116 0.996,1.03 0.729,0.852 0.456,0.67 0.188,0.384 0,0"
             style="fill:#ffffff;fill-opacity:1;fill-rule:nonzero;stroke:none"
             id="path154-5-3"
             inkscape:connector-curvature="0" /></g><g
           id="g156-8-7"
           transform="translate(621.4966,358.4872)"><path
             d="M 0,0 C 0.088,0.159 0.18,0.357 0.271,0.591 L 2.345,5.979 H 1.565 L 0.221,2.058 H 0.166 L 0.16,2.075 -1.234,5.979 H -2.068 L -0.178,1.239 -0.182,1.23 -0.507,0.424 c -0.076,-0.149 -0.166,-0.26 -0.266,-0.335 -0.104,-0.078 -0.24,-0.117 -0.406,-0.117 -0.082,0 -0.164,0.012 -0.245,0.039 -0.065,0.02 -0.129,0.042 -0.193,0.063 v -0.671 c 0.079,-0.027 0.162,-0.046 0.247,-0.057 0.092,-0.013 0.183,-0.019 0.274,-0.019 0.176,0 0.329,0.024 0.455,0.068 0.127,0.045 0.244,0.119 0.349,0.217 0.105,0.1 0.204,0.231 0.292,0.388"
             style="fill:#ffffff;fill-opacity:1;fill-rule:nonzero;stroke:none"
             id="path158-7-4"
             inkscape:connector-curvature="0" /></g></g></g></g></svg>