<?xml version="1.0" encoding="utf-8"?>
<!-- Generator: Adobe Illustrator 23.0.0, SVG Export Plug-In . SVG Version: 6.00 Build 0)  -->
<svg version="1.1" id="Layer_1" xmlns="http://www.w3.org/2000/svg" xmlns:xlink="http://www.w3.org/1999/xlink" x="0px" y="0px"
	 viewBox="0 0 63.39 78.22" style="enable-background:new 0 0 63.39 78.22;" xml:space="preserve">
<style type="text/css">
	.st0{fill:#000033;}
	.st1{fill:#ED5338;}
</style>
<path class="st0" d="M54.15,21.06V0H0v21.06h12.03v36.1H0v21.06h54.15V57.16H42.12v-36.1H54.15z M42.12,60.17h9.03v15.04H3.01V60.17
	h9.03c1.66,0,3.01-1.35,3.01-3.01v-36.1c0-1.66-1.35-3.01-3.01-3.01H3.01V3.01h48.14v15.04h-9.03c-1.66,0-3.01,1.35-3.01,3.01v36.1
	C39.11,58.82,40.46,60.17,42.12,60.17z"/>
<g>
	<path class="st1" d="M42.12,18.05h9.03V3.01H3.01v15.04h9.03c1.66,0,3.01,1.35,3.01,3.01v36.1c0,1.66-1.35,3.01-3.01,3.01H3.01
		v15.04h48.14V60.17h-9.03c-1.66,0-3.01-1.35-3.01-3.01v-36.1C39.11,19.4,40.46,18.05,42.12,18.05z"/>
</g>
<g>
	<polygon class="st0" points="62.65,75.21 61.75,77.33 60.89,75.21 60.14,75.21 60.14,78.22 60.59,78.22 60.59,75.67 60.61,75.67 
		61.61,78.22 61.89,78.22 62.92,75.67 62.93,75.67 62.93,78.22 63.39,78.22 63.39,75.21 	"/>
	<polygon class="st0" points="57.15,75.67 58.14,75.67 58.14,78.22 58.6,78.22 58.6,75.67 59.58,75.67 59.58,75.21 57.15,75.21 	"/>
</g>
</svg>
